
 
http://img24.imageshack.us/img24/8931/jodibreakers.jpg

Rip Specs 

General

Format                                   : Matroska
Format version                           : Version 2
File size                                : 2.06 GiB
Duration                                 : 2h 13mn
Overall bit rate mode                    : Variable
Overall bit rate                         : 2 214 Kbps

Video

Format                                   : AVC
Format/Info                              : Advanced Video Codec
Format profile                           : High@L4.1
Format settings, CABAC                   : Yes
Format settings, ReFrames                : 3 frames
Codec ID                                 : V_MPEG4/ISO/AVC
Duration                                 : 2h 13mn
Bit rate mode                            : Variable
Bit rate                                 : 2 020 Kbps
Maximum bit rate                         : 40.0 Mbps
Width                                    : 1 280 pixels
Height                                   : 544 pixels
Display aspect ratio                     : 2.35:1
Frame rate                               : 23.976 fps
Color space                              : YUV
Chroma subsampling                       : 4:2:0
Bit depth                                : 8 bits
Scan type                                : Progressive
Bits/(Pixel*Frame)                       : 0.121
Stream size                              : 1.84 GiB (89%)

Audio

Format                                   : AC-3
Format/Info                              : Audio Coding 3
Mode extension                           : CM (complete main)
Codec ID                                 : A_AC3
Duration                                 : 2h 13mn
Bit rate mode                            : Constant
Bit rate                                 : 192 Kbps
Channel(s)                               : 2 channels
Channel positions                        : Front: L R
Sampling rate                            : 48.0 KHz
Bit depth                                : 16 bits
Compression mode                         : Lossy
Stream size                              : 183 MiB (9%)


 
http://img827.imageshack.us/img827/6456/49387222.png
 
http://i.imgur.com/KMHyj.png
 
http://i.imgur.com/7Wtnn.png
 
http://i.imgur.com/bNppo.png
 
http://i.imgur.com/1onOW.png
 
http://i.imgur.com/O3BsH.png
 
http://i.imgur.com/VFreF.png


Seeding at 100 Mbps.
Enjoy the HQ Rip by D!D @ DrC
Don\'t forget to leave your reply.
DrC - Always with you !